<?xml version="1.0" standalone="no"?>
<!DOCTYPE svg PUBLIC "-//W3C//DTD SVG 20010904//EN"
 "http://www.w3.org/TR/2001/REC-SVG-20010904/DTD/svg10.dtd">
<svg version="1.0" xmlns="http://www.w3.org/2000/svg"
 width="40.000000pt" height="40.000000pt" viewBox="0 0 40.000000 40.000000"
 preserveAspectRatio="xMidYMid meet">

<g transform="translate(0.000000,40.000000) scale(0.100000,-0.100000)"
fill="#000000" stroke="none">
<path d="M330 130 l0 -120 25 0 25 0 0 120 0 120 -25 0 -25 0 0 -120z"/>
<path d="M210 105 c0 -95 0 -95 25 -95 25 0 25 0 25 95 0 95 0 95 -25 95 -25
0 -25 0 -25 -95z"/>
<path d="M270 90 c0 -79 0 -80 25 -80 25 0 25 1 25 80 0 79 0 80 -25 80 -25 0
-25 -1 -25 -80z"/>
<path d="M90 85 c0 -73 1 -75 25 -75 24 0 25 2 25 75 0 73 -1 75 -25 75 -24 0
-25 -2 -25 -75z"/>
<path d="M150 70 c0 -57 1 -60 25 -60 24 0 25 3 25 60 0 57 -1 60 -25 60 -24
0 -25 -3 -25 -60z"/>
<path d="M30 60 c0 -47 2 -50 25 -50 23 0 25 3 25 50 0 47 -2 50 -25 50 -23 0
-25 -3 -25 -50z"/>
</g>
</svg>
