<?xml version="1.0" standalone="no"?>
<!DOCTYPE svg PUBLIC "-//W3C//DTD SVG 20010904//EN"
 "http://www.w3.org/TR/2001/REC-SVG-20010904/DTD/svg10.dtd">
<svg version="1.0" xmlns="http://www.w3.org/2000/svg"
 width="30.000000pt" height="30.000000pt" viewBox="0 0 30.000000 30.000000"
 preserveAspectRatio="xMidYMid meet">

<g transform="translate(0.000000,30.000000) scale(0.100000,-0.100000)"
fill="#000000" stroke="none">
<path d="M250 101 c0 -85 1 -91 20 -91 20 0 21 5 18 87 -3 74 -6 88 -20 91
-16 3 -18 -6 -18 -87z"/>
<path d="M160 80 l0 -70 40 0 40 0 0 60 c0 53 -2 60 -20 60 -11 0 -20 5 -20
10 0 6 -9 10 -20 10 -18 0 -20 -7 -20 -70z"/>
<path d="M70 65 l0 -55 40 0 40 0 0 45 c0 38 -3 45 -20 45 -11 0 -20 5 -20 10
0 6 -9 10 -20 10 -18 0 -20 -7 -20 -55z"/>
<path d="M20 45 c0 -28 4 -35 20 -35 16 0 20 7 20 35 0 28 -4 35 -20 35 -16 0
-20 -7 -20 -35z"/>
</g>
</svg>
