<?xml version="1.0" standalone="no"?>
<!DOCTYPE svg PUBLIC "-//W3C//DTD SVG 20010904//EN"
 "http://www.w3.org/TR/2001/REC-SVG-20010904/DTD/svg10.dtd">
<svg version="1.0" xmlns="http://www.w3.org/2000/svg"
 width="80.000000pt" height="80.000000pt" viewBox="0 0 80.000000 80.000000"
 preserveAspectRatio="xMidYMid meet">

<g transform="translate(0.000000,80.000000) scale(0.100000,-0.100000)"
fill="#000000" stroke="none">
<path d="M692 748 c-6 -6 -12 -23 -12 -37 -1 -34 -49 -87 -86 -94 -37 -7 -79
15 -96 50 -23 49 -78 38 -78 -16 -1 -34 -49 -87 -86 -94 -37 -7 -79 15 -96 50
-7 15 -21 29 -31 31 -23 5 -47 -15 -47 -37 0 -25 -47 -65 -77 -66 -33 0 -52
-28 -37 -53 22 -34 74 -22 74 17 0 10 11 28 25 41 45 43 131 28 157 -27 23
-49 78 -38 78 16 1 34 49 87 86 94 37 7 79 -15 96 -50 23 -49 78 -38 78 16 1
31 50 88 81 93 12 2 27 11 33 21 22 35 -32 75 -62 45z m44 -19 c10 -17 -13
-36 -27 -22 -12 12 -4 33 11 33 5 0 12 -5 16 -11z m-260 -60 c10 -17 -13 -36
-27 -22 -12 12 -4 33 11 33 5 0 12 -5 16 -11z m-260 -60 c10 -17 -13 -36 -27
-22 -12 12 -4 33 11 33 5 0 12 -5 16 -11z m400 -20 c10 -17 -13 -36 -27 -22
-12 12 -4 33 11 33 5 0 12 -5 16 -11z m-260 -60 c10 -17 -13 -36 -27 -22 -12
12 -4 33 11 33 5 0 12 -5 16 -11z m-260 -20 c10 -17 -13 -36 -27 -22 -12 12
-4 33 11 33 5 0 12 -5 16 -11z"/>
<path d="M660 260 l0 -240 50 0 50 0 0 240 0 240 -50 0 -50 0 0 -240z m80 0
l0 -220 -30 0 -30 0 0 220 0 220 30 0 30 0 0 -220z"/>
<path d="M420 210 l0 -190 50 0 50 0 0 190 0 190 -50 0 -50 0 0 -190z m80 0
l0 -170 -30 0 -30 0 0 170 0 170 30 0 30 0 0 -170z"/>
<path d="M540 180 l0 -160 50 0 50 0 0 160 0 160 -50 0 -50 0 0 -160z m80 0
l0 -140 -30 0 -30 0 0 140 0 140 30 0 30 0 0 -140z"/>
<path d="M180 170 l0 -150 50 0 50 0 0 150 0 150 -50 0 -50 0 0 -150z m80 0
l0 -130 -30 0 -30 0 0 130 0 130 30 0 30 0 0 -130z"/>
<path d="M300 140 l0 -120 50 0 50 0 0 120 0 120 -50 0 -50 0 0 -120z m80 0
l0 -100 -30 0 -30 0 0 100 0 100 30 0 30 0 0 -100z"/>
<path d="M60 120 l0 -100 50 0 50 0 0 100 0 100 -50 0 -50 0 0 -100z m80 0 l0
-80 -30 0 -30 0 0 80 0 80 30 0 30 0 0 -80z"/>
</g>
</svg>
