<?xml version="1.0" standalone="no"?>
<!DOCTYPE svg PUBLIC "-//W3C//DTD SVG 20010904//EN"
 "http://www.w3.org/TR/2001/REC-SVG-20010904/DTD/svg10.dtd">
<svg version="1.0" xmlns="http://www.w3.org/2000/svg"
 width="40.000000pt" height="40.000000pt" viewBox="0 0 40.000000 40.000000"
 preserveAspectRatio="xMidYMid meet">

<g transform="translate(0.000000,40.000000) scale(0.100000,-0.100000)"
fill="#000000" stroke="none">
<path d="M343 363 c-18 -53 -59 -67 -92 -32 -20 21 -41 19 -41 -5 0 -17 -33
-46 -53 -46 -9 0 -26 10 -37 23 l-21 22 -21 -27 c-11 -16 -26 -28 -33 -28 -20
0 -29 -20 -15 -33 9 -9 16 -5 32 16 24 33 59 35 87 6 20 -21 41 -19 41 5 0 17
33 46 53 46 9 0 25 -9 36 -21 20 -22 41 -19 41 6 0 7 14 25 31 38 18 14 29 29
25 36 -10 16 -26 13 -33 -6z"/>
<path d="M330 130 l0 -120 25 0 25 0 0 120 0 120 -25 0 -25 0 0 -120z m40 0
c0 -91 -3 -110 -15 -110 -12 0 -15 19 -15 110 0 91 3 110 15 110 12 0 15 -19
15 -110z"/>
<path d="M210 105 c0 -95 0 -95 25 -95 25 0 25 0 25 95 0 95 0 95 -25 95 -25
0 -25 0 -25 -95z m40 0 c0 -69 -3 -85 -15 -85 -12 0 -15 16 -15 85 0 69 3 85
15 85 12 0 15 -16 15 -85z"/>
<path d="M270 90 c0 -79 0 -80 25 -80 25 0 25 1 25 80 0 79 0 80 -25 80 -25 0
-25 -1 -25 -80z m40 0 c0 -56 -3 -70 -15 -70 -12 0 -15 14 -15 70 0 56 3 70
15 70 12 0 15 -14 15 -70z"/>
<path d="M90 85 c0 -73 1 -75 25 -75 24 0 25 2 25 75 0 73 -1 75 -25 75 -24 0
-25 -2 -25 -75z m40 0 c0 -51 -3 -65 -15 -65 -12 0 -15 14 -15 65 0 51 3 65
15 65 12 0 15 -14 15 -65z"/>
<path d="M150 70 c0 -57 1 -60 25 -60 24 0 25 3 25 60 0 57 -1 60 -25 60 -24
0 -25 -3 -25 -60z m40 0 c0 -38 -4 -50 -15 -50 -11 0 -15 12 -15 50 0 38 4 50
15 50 11 0 15 -12 15 -50z"/>
<path d="M30 60 c0 -47 2 -50 25 -50 23 0 25 3 25 50 0 47 -2 50 -25 50 -23 0
-25 -3 -25 -50z m40 0 c0 -29 -4 -40 -15 -40 -11 0 -15 11 -15 40 0 29 4 40
15 40 11 0 15 -11 15 -40z"/>
</g>
</svg>
